<?xml version="1.0" encoding="utf-8"?>
<!-- Generator: Adobe Illustrator 16.0.0, SVG Export Plug-In . SVG Version: 6.00 Build 0)  -->
<!DOCTYPE svg PUBLIC "-//W3C//DTD SVG 1.1//EN" "http://www.w3.org/Graphics/SVG/1.1/DTD/svg11.dtd">
<svg version="1.1" id="Layer_1" xmlns="http://www.w3.org/2000/svg" xmlns:xlink="http://www.w3.org/1999/xlink" x="0px" y="0px"
	 width="612px" height="792px" viewBox="0 0 612 792" enable-background="new 0 0 612 792" xml:space="preserve">
<g>
	<g>
		<path fill="#FFFFFF" d="M-581.783,205.528h4.242v18.435h-5.266c-1.756-7.974-6.365-13.68-15.07-13.68
			c-6.803,0-9.583,1.756-9.583,6.584c0,10.974,32.626,2.78,32.626,23.19c0,11.631-9.071,15.436-19.312,15.436
			c-5.486,0-10.973-2.341-15.216-5.779l-1.609,4.316h-4.975v-19.825h5.414c1.024,9.803,7.022,15.07,17.41,15.07
			c6.438,0,9.51-3,9.51-6.511c0-12.509-32.627-3.072-32.627-23.994c0-10.315,9.292-14.704,18.143-14.704
			c5.56,0,10.242,2.561,13.899,5.121L-581.783,205.528z"/>
		<path fill="#FFFFFF" d="M-559.182,225.792h0.146c2.926-4.975,6.657-7.096,11.485-7.096c10.168,0,14.485,9.217,14.485,18.214
			c0,8.999-4.316,18.216-14.485,18.216c-5.779,0-9.803-3.585-11.339-6.292h-0.219v12.655c0,2.194,0.658,3.22,2.926,3.22h4.609v4.827
			h-23.19v-4.827h4.024c2.268,0,2.926-1.025,2.926-3.22v-33.65c0-2.195-0.659-3.219-2.926-3.219h-3.805v-4.828h15.363V225.792z
			 M-558.962,236.911c0,8.414,3.658,12.51,8.559,12.51c4.17,0,7.535-4.316,7.535-12.51c0-9.363-3.511-12.509-7.535-12.509
			C-555.304,224.402-558.962,228.499-558.962,236.911z"/>
		<path fill="#FFFFFF" d="M-519.91,237.789c-0.22,5.706,1.537,11.851,8.34,11.851c5.267,0,7.9-2.707,8.852-7.754h6.071
			c-0.951,8.339-5.999,13.242-15.728,13.242c-11.339,0-17.337-6.365-17.337-18.216c0-10.68,6.876-18.214,16.972-18.214
			c11.997,0,17.045,10.753,16.24,19.093H-519.91z M-506.303,232.96c0.073-4.608-1.39-9.144-6.584-9.144
			c-4.974,0-6.803,4.536-7.023,9.144H-506.303z"/>
		<path fill="#FFFFFF" d="M-460.437,239.983c-0.659,9.803-5.779,15.144-15.728,15.144c-11.266,0-17.191-6.511-17.191-18.289
			c0-10.826,8.559-18.142,18.069-18.142c8.486,0,15.069,4.609,15.069,10.753c0,3.219-2.121,6.072-5.267,6.072
			c-2.56,0-5.706-1.317-5.706-4.39c0-2.926,1.39-4.535,4.316-4.755c-1.609-2.122-4.096-2.853-6.95-2.853
			c-7.608,0-9.729,7.169-9.729,12.729s1.829,12.728,9.437,12.728c4.39,0,7.461-3.73,7.974-8.998H-460.437z"/>
		<path fill="#FFFFFF" d="M-456.343,254.029v-4.829h3.365c2.049,0,2.926-0.805,2.926-2.926v-18.727c0-2.121-0.877-2.926-2.926-2.926
			h-3.365v-4.828h14.923v26.481c0,2.122,0.878,2.926,2.926,2.926h3.584v4.829H-456.343z"/>
		<path fill="#FFFFFF" d="M-446.687,204.65c2.853,0,5.267,2.341,5.267,5.268s-2.414,5.268-5.267,5.268s-5.267-2.341-5.267-5.268
			S-449.54,204.65-446.687,204.65z"/>
		<path fill="#FFFFFF" d="M-402.649,255.127c-3.658,0-6.804-1.537-7.389-5.414c-2.707,4.096-7.388,5.414-11.997,5.414
			c-5.706,0-10.168-2.707-10.168-9.291c0-14.192,21.946-7.315,21.946-17.63c0-4.682-3.951-5.559-7.828-5.559
			c-2.048,0-5.486,0.659-6.803,2.414c2.706-0.366,4.828,0.805,4.828,3.804c0,3.292-2.268,4.316-5.121,4.316
			c-3.145,0-5.267-2.414-5.267-5.414c0-7.461,8.924-9.07,14.704-9.07c9.875,0,14.118,4.461,14.118,10.607v17.923
			c0,1.609,0.659,2.414,1.756,2.414 M-410.257,235.96l-7.755,3.511c-2.121,0.951-4.389,2.122-4.389,5.559
			c0,3.073,1.39,4.609,4.389,4.609c4.975,0,7.755-4.243,7.755-8.924V235.96z"/>
		<path fill="#FFFFFF" d="M-397.708,254.029v-4.829h3.584c2.049,0,2.926-0.805,2.926-2.926v-32.992c0-2.122-0.877-2.926-2.926-2.926
			h-3.584v-4.829h15.143v40.747c0,2.122,0.878,2.926,2.927,2.926h3.438v4.829H-397.708z"/>
		<path fill="#FFFFFF" d="M-294.159,254.029v-5.779h-0.146c-3,5.34-7.535,6.876-12.363,6.876c-6.803,0-10.753-3.439-10.753-10.242
			v-17.337c0-2.121-0.878-2.926-2.927-2.926h-3.73v-4.828h15.289v24.288c0,3.072,2.049,5.34,5.633,5.34
			c6.219,0,8.998-5.926,8.998-9.437v-12.436c0-2.048-1.244-2.926-3.584-2.926h-3.951v-4.828h16.167v26.481
			c0,2.122,0.878,2.926,4.17,2.926h2.927v4.829H-294.159z"/>
		<path fill="#FFFFFF" d="M-269.143,237.789c-0.219,5.706,1.536,11.851,8.339,11.851c5.268,0,7.901-2.707,8.852-7.754h6.072
			c-0.951,8.339-5.998,13.242-15.729,13.242c-11.339,0-17.337-6.365-17.337-18.216c0-10.68,6.877-18.214,16.972-18.214
			c11.997,0,17.045,10.753,16.24,19.093H-269.143z M-255.537,232.96c0.073-4.608-1.39-9.144-6.584-9.144
			c-4.974,0-6.804,4.536-7.022,9.144H-255.537z"/>
		<path fill="#FFFFFF" d="M-237.811,240.642c1.463,6.438,5.926,9.583,12.363,9.583c2.56,0,5.706-1.389,5.706-4.389
			c0-7.169-23.044-3.073-23.044-16.167c0-7.242,6.95-10.973,13.388-10.973c3.877,0,7.607,1.463,10.753,3.584l1.463-2.487h4.024
			v12.217h-4.756c-1.756-5.341-5.193-8.047-10.827-8.047c-2.413,0-5.559,1.024-5.559,3.95c0,5.706,23.043,3,23.043,16.387
			c0,7.681-6.511,10.827-13.387,10.827c-4.39,0-8.779-0.732-12.217-3.731l-1.463,2.633h-4.828v-13.388H-237.811z"/>
		<path fill="#FFFFFF" d="M-209.6,224.621v-4.608c7.463-0.512,9.364-7.096,10.022-13.826h4.535v13.606h9.657v4.828h-9.438v21.581
			c0,1.463,0.805,2.414,2.779,2.414c2.269,0,3.146-1.244,3.146-4.17v-6.511h4.828v6.146c0,7.681-4.243,11.046-10.022,11.046
			c-5.486,0-9.363-2.269-9.363-8.12v-22.386H-209.6z"/>
	</g>
	<polyline fill="#FFFFFF" points="-397.708,254.029 -403.337,254.029 -403.337,249.205 -397.708,249.205 	"/>
	<path fill="#FFFFFF" d="M-376.202,255.127"/>
	<polyline fill="#FFFFFF" points="-401.407,255.127 -376.202,255.127 -376.202,253.566 -404.186,252.408 -402.649,255.127 	"/>
	<path fill="#FFFFFF" d="M-401.625,245.859c0,0-0.605,3.316,3.036,3.316s-0.374,3.374-0.374,3.374l-4.374-0.562"/>
	<g>
		<path fill="#FFFFFF" d="M-345.551,228.133v5.414h4.682c1.901,0,3.877,1.024,3.877,3.511v2.78c0,5.56-3.439,9.364-10.827,9.364
			c-10.314,0-13.972-8.339-13.972-19.458c0-10.827,4.682-19.386,12.729-19.386c9.51,0,13.313,6.95,15.289,13.973h5.633v-18.801
			h-5.414l-1.828,4.024c-3.877-3.219-8.705-5.487-14.558-5.487c-14.339,0-23.337,10.9-23.337,25.678
			c0,15.654,9.145,25.75,23.337,25.75c5.267,0,11.119-1.755,15.216-5.194l2.707,3.731h5.267v-16.825v-9.071H-345.551z"/>
	</g>
</g>
</svg>
